<svg width="15" height="15" viewBox="0 0 15 15" fill="none" xmlns="http://www.w3.org/2000/svg">
<path fill-rule="evenodd" clip-rule="evenodd" d="M5.78009 11.0303C5.63944 11.1709 5.44871 11.2499 5.24984 11.2499C5.05097 11.2499 4.86024 11.1709 4.71959 11.0303L1.71959 8.03031C1.57899 7.88967 1.5 7.69893 1.5 7.50006C1.5 7.30119 1.57899 7.11046 1.71959 6.96981L4.71959 3.96981C4.86104 3.83319 5.05049 3.7576 5.24714 3.75931C5.44379 3.76101 5.6319 3.83989 5.77095 3.97895C5.91001 4.118 5.98889 4.30611 5.9906 4.50276C5.9923 4.69941 5.91671 4.88886 5.78009 5.03031L4.06034 6.75006H12.7498C12.9488 6.75006 13.1395 6.82908 13.2802 6.96973C13.4208 7.11038 13.4998 7.30115 13.4998 7.50006C13.4998 7.69897 13.4208 7.88974 13.2802 8.03039C13.1395 8.17104 12.9488 8.25006 12.7498 8.25006H4.06034L5.78009 9.96981C5.92069 10.1105 5.99968 10.3012 5.99968 10.5001C5.99968 10.6989 5.92069 10.8897 5.78009 11.0303Z" fill="#111517"/>
</svg>
