<svg width="17" height="16" viewBox="0 0 17 16" fill="none" xmlns="http://www.w3.org/2000/svg">
<path d="M14.4027 10.2353C13.3116 10.6741 12.1155 10.7826 10.9632 10.5471C9.81087 10.3117 8.75316 9.74284 7.92153 8.91121C7.08989 8.07958 6.52101 7.02187 6.28559 5.86956C6.05018 4.71726 6.15861 3.52118 6.59741 2.42999C5.30522 2.95048 4.23432 3.90425 3.56829 5.12781C2.90227 6.35136 2.6826 7.76849 2.94695 9.13626C3.2113 10.504 3.9432 11.7372 5.01718 12.6245C6.09116 13.5118 7.44033 13.9978 8.83341 13.9993C10.0314 13.9994 11.2019 13.6409 12.1944 12.9701C13.187 12.2993 13.9561 11.3469 14.4027 10.2353Z" stroke="#111517" stroke-width="1.33333" stroke-linecap="round" stroke-linejoin="round"/>
</svg>
