<svg width="21" height="20" viewBox="0 0 21 20" fill="none" xmlns="http://www.w3.org/2000/svg">
<path d="M18.6104 16.4599L14.9351 12.7845C15.8199 11.6065 16.2976 10.1726 16.296 8.69933C16.296 4.93605 13.2343 1.87433 9.471 1.87433C5.70772 1.87433 2.646 4.93605 2.646 8.69933C2.646 12.4626 5.70772 15.5243 9.471 15.5243C10.9443 15.5259 12.3782 15.0483 13.5562 14.1634L17.2315 17.8388C17.4176 18.0051 17.6602 18.0939 17.9097 18.0869C18.1591 18.0799 18.3965 17.9777 18.5729 17.8012C18.7494 17.6248 18.8516 17.3875 18.8586 17.138C18.8655 16.8886 18.7768 16.6459 18.6104 16.4599ZM4.596 8.69933C4.596 7.73514 4.88191 6.79261 5.41758 5.99092C5.95325 5.18923 6.71462 4.56439 7.60541 4.19542C8.4962 3.82644 9.4764 3.7299 10.4221 3.918C11.3677 4.1061 12.2364 4.5704 12.9181 5.25218C13.5999 5.93396 14.0642 6.80261 14.2523 7.74826C14.4404 8.69392 14.3439 9.67412 13.9749 10.5649C13.6059 11.4557 12.9811 12.2171 12.1794 12.7527C11.3777 13.2884 10.4352 13.5743 9.471 13.5743C8.17854 13.5728 6.93947 13.0587 6.02556 12.1448C5.11166 11.2309 4.59755 9.99178 4.596 8.69933Z" fill="#858585"/>
</svg>
